<svg width="117" height="117" viewBox="0 0 117 117" fill="none" xmlns="http://www.w3.org/2000/svg">
<g clip-path="url(#clip0_139_18)">
<path d="M116.069 42.0101C114.77 35.9309 112.188 30.463 108.404 25.7702L108.375 25.7345C107.588 24.7542 106.156 24.5929 105.171 25.3764C104.183 26.1621 104.019 27.5997 104.804 28.5873L104.837 28.6269C108.176 32.7689 110.452 37.5931 111.6 42.9653C112.759 48.3877 112.703 54.1036 111.434 59.9536C109.038 70.9943 102.532 81.3365 93.1142 89.0752C83.6605 96.8433 72.3291 101.121 61.2077 101.121C55.4681 101.121 50.0929 99.9921 45.2312 97.7649C40.434 95.5668 36.3525 92.4072 33.0998 88.3732C29.8368 84.3262 27.5926 79.627 26.4203 74.4038H31.1007C32.1572 78.478 34.0189 82.2318 36.6576 85.5046C42.4011 92.6279 51.1199 96.5511 61.2077 96.5511C61.6636 96.5511 62.1199 96.5403 62.5767 96.5243C62.6878 96.5406 62.7984 96.5515 62.9078 96.5515C63.0936 96.5515 63.2758 96.5275 63.4517 96.4841C72.7932 95.9508 82.2156 92.1154 90.2125 85.5439C98.8387 78.4556 104.789 69.0234 106.967 58.9845C106.968 58.9806 106.969 58.9767 106.969 58.9728C106.971 58.9646 106.973 58.9564 106.974 58.9479C109.214 48.5788 107.192 38.8303 101.278 31.4952C95.5424 24.3813 86.8389 20.4597 76.7675 20.4494C76.7575 20.4492 76.7474 20.4492 76.7374 20.449C76.7344 20.449 76.7314 20.449 76.7282 20.449C66.6624 20.449 56.3616 24.3579 47.7234 31.4559C39.0972 38.5442 33.1469 47.9764 30.9687 58.0153C30.9677 58.0199 30.9668 58.0245 30.9659 58.0293C30.9646 58.0361 30.9632 58.043 30.9618 58.0498C30.0845 62.1092 29.8633 66.0723 30.2703 69.8337H25.6877C25.2855 65.6896 25.5567 61.4054 26.5026 57.0464C28.8981 46.0059 35.4039 35.6638 44.822 27.9248C54.2757 20.1567 65.6068 15.8786 76.7282 15.8786C81.2394 15.8786 85.5565 16.5841 89.5592 17.9755C90.7513 18.3903 92.0534 17.7593 92.4679 16.5672C92.8822 15.375 92.252 14.0727 91.0598 13.6584C86.5732 12.099 81.7515 11.3081 76.7282 11.3081C65.2588 11.3081 53.6262 15.4321 43.7322 22.9624H15.3105C14.0485 22.9624 13.0254 23.9855 13.0254 25.2476C13.0254 26.5097 14.0485 27.5327 15.3105 27.5327H38.3867C30.0823 35.494 24.3355 45.4792 22.0362 56.0771C21.0223 60.7495 20.7129 65.3566 21.1009 69.8335H12.5567C11.2946 69.8335 10.2715 70.8565 10.2715 72.1186C10.2715 73.3807 11.2946 74.4038 12.5567 74.4038H21.7501C21.789 74.5992 21.8253 74.795 21.8669 74.9897C23.166 81.0687 25.7485 86.5366 29.5423 91.242C33.2431 95.8317 37.8813 99.4244 43.3279 101.92C48.7911 104.423 54.8067 105.692 61.2079 105.692C73.3848 105.692 85.7466 101.045 96.0159 92.6062C106.226 84.2169 113.287 72.9648 115.9 60.9225C117.308 54.4345 117.365 48.0712 116.069 42.0101ZM35.0929 60.7852H37.663C38.9251 60.7852 39.9482 59.7621 39.9482 58.5C39.9482 57.2379 38.9251 56.2149 37.663 56.2149H36.15C38.5334 48.2168 43.5964 40.7626 50.6251 34.9871C57.6218 29.2377 65.7771 25.8013 73.8684 25.1392L73.5274 26.7105C73.2598 27.9438 74.0427 29.1607 75.276 29.4283C75.4394 29.4637 75.6023 29.4806 75.7628 29.4806C76.8148 29.4806 77.7616 28.7496 77.9938 27.6794L78.5596 25.0711C86.453 25.5067 93.2074 28.7662 97.7206 34.364C102.42 40.1923 104.211 47.8948 102.843 56.2149H100.273C99.0113 56.2149 97.988 57.2379 97.988 58.5C97.988 59.7621 99.0113 60.7852 100.273 60.7852H101.786C99.4027 68.7832 94.3399 76.2374 87.311 82.0129C80.815 87.3508 73.3206 90.6947 65.8059 91.6761L66.1068 90.2895C66.3744 89.0562 65.5915 87.8394 64.3585 87.5718C63.1249 87.3033 61.9079 88.0869 61.6405 89.3204L61.0635 91.9791C52.4471 91.9424 45.0473 88.6287 40.2153 82.6361C38.2441 80.1914 36.7869 77.4156 35.8573 74.404H45.6049C46.867 74.404 47.89 73.381 47.89 72.1189C47.89 70.8568 46.867 69.8337 45.6049 69.8337H34.8767C34.5123 66.9489 34.579 63.911 35.0929 60.7852Z" fill="url(#paint0_linear_139_18)"/>
<path d="M59.8636 68.2679C60.3741 68.2679 60.8876 68.0977 61.3131 67.7483L70.4192 60.2657C70.8168 59.939 71.0924 59.4876 71.2016 58.9847L75.7863 37.8536C76.0539 36.6203 75.271 35.4035 74.0377 35.1359C72.8049 34.8681 71.5876 35.6512 71.32 36.8845L66.9037 57.239L58.4116 64.217C57.4365 65.0182 57.2955 66.4583 58.0969 67.4334C58.5485 67.9832 59.2034 68.2679 59.8636 68.2679Z" fill="url(#paint1_linear_139_18)"/>
<path d="M2.28516 47.2106H17.8859C19.148 47.2106 20.1711 46.1876 20.1711 44.9255C20.1711 43.6634 19.148 42.6403 17.8859 42.6403H2.28516C1.02306 42.6403 0 43.6634 0 44.9255C0 46.1876 1.02306 47.2106 2.28516 47.2106Z" fill="url(#paint2_linear_139_18)"/>
<path d="M20.1939 90.6286H8.29901C7.03692 90.6286 6.01385 91.6517 6.01385 92.9138C6.01385 94.1759 7.03692 95.1989 8.29901 95.1989H20.1939C21.456 95.1989 22.4791 94.1759 22.4791 92.9138C22.4791 91.6517 21.456 90.6286 20.1939 90.6286Z" fill="url(#paint3_linear_139_18)"/>
<path d="M4.39436 71.2446C3.60804 69.3568 0.832489 69.4231 0.135288 71.3485C-0.194917 72.2608 0.112208 73.3256 0.879792 73.92C1.62407 74.4963 2.66336 74.5587 3.4691 74.0722C4.42087 73.4973 4.82237 72.2713 4.39436 71.2446Z" fill="url(#paint4_linear_139_18)"/>
<path d="M97.3865 21.4396C97.8648 22.5879 99.2197 23.1537 100.371 22.6758C101.522 22.1982 102.083 20.8425 101.607 19.6914C101.132 18.5413 99.7724 17.978 98.6228 18.4552C97.4699 18.9337 96.9139 20.2867 97.3865 21.4396Z" fill="url(#paint5_linear_139_18)"/>
</g>
<defs>
<linearGradient id="paint0_linear_139_18" x1="13.7594" y1="11.3082" x2="116.831" y2="15.4993" gradientUnits="userSpaceOnUse">
<stop stop-color="#FF7347"/>
<stop offset="1" stop-color="#FD9A06"/>
</linearGradient>
<linearGradient id="paint1_linear_139_18" x1="58.1739" y1="35.0834" x2="75.832" y2="35.4328" gradientUnits="userSpaceOnUse">
<stop stop-color="#FF7347"/>
<stop offset="1" stop-color="#FD9A06"/>
</linearGradient>
<linearGradient id="paint2_linear_139_18" x1="0.659185" y1="42.6403" x2="19.6919" y2="45.6609" gradientUnits="userSpaceOnUse">
<stop stop-color="#FF7347"/>
<stop offset="1" stop-color="#FD9A06"/>
</linearGradient>
<linearGradient id="paint3_linear_139_18" x1="6.55193" y1="90.6286" x2="22.2164" y2="92.6579" gradientUnits="userSpaceOnUse">
<stop stop-color="#FF7347"/>
<stop offset="1" stop-color="#FD9A06"/>
</linearGradient>
<linearGradient id="paint4_linear_139_18" x1="0.152789" y1="69.8659" x2="4.55941" y2="70.0253" gradientUnits="userSpaceOnUse">
<stop stop-color="#FF7347"/>
<stop offset="1" stop-color="#FD9A06"/>
</linearGradient>
<linearGradient id="paint5_linear_139_18" x1="97.367" y1="18.2851" x2="101.771" y2="18.4434" gradientUnits="userSpaceOnUse">
<stop stop-color="#FF7347"/>
<stop offset="1" stop-color="#FD9A06"/>
</linearGradient>
<clipPath id="clip0_139_18">
<rect width="117" height="117" fill="white"/>
</clipPath>
</defs>
</svg>
