<svg width="117" height="117" viewBox="0 0 117 117" fill="none" xmlns="http://www.w3.org/2000/svg">
<g clip-path="url(#clip0_141_2)">
<path d="M47.5312 91.4062H62.1562V95.0625H47.5312V91.4062Z" fill="url(#paint0_linear_141_2)"/>
<path d="M47.5312 84.0938H62.1562V87.75H47.5312V84.0938Z" fill="url(#paint1_linear_141_2)"/>
<path d="M1.82812 89.5781C1.82812 88.5685 2.6466 87.75 3.65625 87.75H21.9375C22.9471 87.75 23.7656 88.5685 23.7656 89.5781C23.7656 90.5878 22.9471 91.4062 21.9375 91.4062H3.65625C2.6466 91.4062 1.82812 90.5878 1.82812 89.5781Z" fill="url(#paint2_linear_141_2)"/>
<path d="M1.82812 104.203C1.82812 103.193 2.6466 102.375 3.65625 102.375H21.9375C22.9471 102.375 23.7656 103.193 23.7656 104.203C23.7656 105.213 22.9471 106.031 21.9375 106.031H3.65625C2.6466 106.031 1.82812 105.213 1.82812 104.203Z" fill="url(#paint3_linear_141_2)"/>
<path d="M16.4531 96.8906C16.4531 95.881 17.2716 95.0625 18.2812 95.0625H25.5938C26.6034 95.0625 27.4219 95.881 27.4219 96.8906C27.4219 97.9003 26.6034 98.7188 25.5938 98.7188H18.2813C17.2716 98.7188 16.4531 97.9003 16.4531 96.8906Z" fill="url(#paint4_linear_141_2)"/>
<path d="M9.14062 96.8906C9.14062 95.881 9.9591 95.0625 10.9688 95.0625C11.9784 95.0625 12.7969 95.881 12.7969 96.8906C12.7969 97.9003 11.9784 98.7188 10.9688 98.7188C9.9591 98.7188 9.14062 97.9003 9.14062 96.8906Z" fill="url(#paint5_linear_141_2)"/>
<path fill-rule="evenodd" clip-rule="evenodd" d="M97.8925 63.8281L105.914 89.4968C112.329 90.1824 117.344 95.6247 117.344 102.219V105.875C117.344 106.886 116.525 107.703 115.516 107.703H113.523C112.647 112.882 108.145 116.844 102.719 116.844C97.2929 116.844 92.7884 112.882 91.9145 107.703H89.9219H62.3355C61.4598 112.882 56.9571 116.844 51.5312 116.844C46.1054 116.844 41.6009 112.882 40.727 107.703H35.0781C34.069 107.703 33.25 106.886 33.25 105.875V96.7344C33.25 93.5735 33.8825 90.5626 35.0068 87.8022L30.2171 76.625H16.7969V72.9688H20.4531V61.9854C10.2814 56.5613 4 46.1758 4 34.5781C4 17.4413 17.9413 3.5 35.0781 3.5C52.215 3.5 66.1562 17.4413 66.1562 34.5781C66.1562 44.5378 61.3848 53.8447 53.3594 59.6947V72.9688H57.0156V71.1406C57.0156 68.1169 59.4763 65.6562 62.5 65.6562H69.8125C72.8362 65.6562 75.2969 68.1169 75.2969 71.1406V74.7969V93.0781H80.7812C83.805 93.0781 86.2656 90.6175 86.2656 87.5938V63.8281H84.4375C83.4284 63.8281 82.6094 63.011 82.6094 62H75.2969C74.2878 62 73.4688 61.1828 73.4688 60.1719V54.6875C73.4688 53.6765 74.2878 52.8594 75.2969 52.8594H82.6094V51.0312C82.6094 50.0203 83.4284 49.2031 84.4375 49.2031H99.0625C99.7078 49.2031 100.247 49.556 100.573 50.0587L105.558 47.567C106.123 47.2854 106.797 47.311 107.337 47.6474C107.874 47.9819 108.203 48.5688 108.203 49.2031V63.8281C108.203 64.4625 107.874 65.0493 107.337 65.3839C107.042 65.5648 106.71 65.6562 106.375 65.6562C106.095 65.6562 105.816 65.5923 105.558 65.4625L100.573 62.9707C100.247 63.4753 99.7078 63.8281 99.0625 63.8281H97.8925ZM17.0181 55.2231L19.9175 52.3237L17.3325 49.7388L14.4276 52.6437C10.5136 48.1885 8.11877 42.5323 7.72023 36.4062H11.3125V32.75H7.74948C8.16081 26.5655 10.6178 20.9458 14.466 16.551L17.3325 19.4175L19.9175 16.8325L17.051 13.966C21.4458 10.1178 27.0655 7.65898 33.25 7.24948V10.8125H36.9062V7.24948C43.0908 7.66081 48.7105 10.1178 53.1053 13.966L50.2388 16.8325L52.8237 19.4175L55.6902 16.551C59.5384 20.9458 61.9973 26.5655 62.4068 32.75H58.8438V36.4062H62.436C61.9589 43.5762 58.6847 50.2433 53.3594 55.0093V52.8594C53.3594 51.8484 52.5404 51.0312 51.5312 51.0312H22.2812C21.2721 51.0312 20.4531 51.8484 20.4531 52.8594V57.7642C19.2338 56.9983 18.0857 56.1518 17.0181 55.2231ZM24.1094 54.6875V65.6562H49.7031V54.6875H24.1094ZM49.7031 69.3125V72.9688H24.1094V69.3125H49.7031ZM44.407 76.625H34.1933L37.2006 83.6432C39.0726 80.8187 41.5369 78.4312 44.407 76.625ZM89.165 104.047H36.9062V96.7344C36.9062 85.6468 45.928 76.625 57.0156 76.625H58.8438H71.6406V94.9062C71.6406 95.9172 72.4596 96.7344 73.4688 96.7344H80.7812C85.8214 96.7344 89.9219 92.6339 89.9219 87.5938V63.8281H94.0626L102.472 90.74L89.165 104.047ZM97.2344 52.8594H86.2656V60.1719H97.2344V52.8594ZM104.547 60.8702L100.891 59.0421V53.9892L104.547 52.161V60.8702ZM77.125 56.5156V58.3438H82.6094V56.5156H77.125ZM69.8125 69.3125C70.8198 69.3125 71.6406 70.1315 71.6406 71.1406V72.9688H60.6719V71.1406C60.6719 70.1315 61.4927 69.3125 62.5 69.3125H69.8125ZM94.335 104.047H113.688V102.219C113.688 97.4144 109.949 93.5059 105.234 93.1476L94.335 104.047ZM102.719 113.188C99.3221 113.188 96.483 110.849 95.6658 107.703H109.772C108.954 110.849 106.115 113.188 102.719 113.188ZM44.4783 107.703C45.2955 110.849 48.1346 113.188 51.5312 113.188C54.9279 113.188 57.767 110.849 58.5842 107.703H44.4783Z" fill="url(#paint6_linear_141_2)"/>
</g>
<defs>
<linearGradient id="paint0_linear_141_2" x1="48.0092" y1="91.4063" x2="61.8697" y2="93.3999" gradientUnits="userSpaceOnUse">
<stop stop-color="#FDCC06"/>
<stop offset="1" stop-color="#FFDB47"/>
</linearGradient>
<linearGradient id="paint1_linear_141_2" x1="48.0092" y1="84.0938" x2="61.8697" y2="86.0874" gradientUnits="userSpaceOnUse">
<stop stop-color="#FDCC06"/>
<stop offset="1" stop-color="#FFDB47"/>
</linearGradient>
<linearGradient id="paint2_linear_141_2" x1="2.54504" y1="87.75" x2="22.822" y2="92.1249" gradientUnits="userSpaceOnUse">
<stop stop-color="#FDCC06"/>
<stop offset="1" stop-color="#FFDB47"/>
</linearGradient>
<linearGradient id="paint3_linear_141_2" x1="2.54504" y1="102.375" x2="22.822" y2="106.75" gradientUnits="userSpaceOnUse">
<stop stop-color="#FDCC06"/>
<stop offset="1" stop-color="#FFDB47"/>
</linearGradient>
<linearGradient id="paint4_linear_141_2" x1="16.8116" y1="95.0625" x2="27.2999" y2="96.194" gradientUnits="userSpaceOnUse">
<stop stop-color="#FDCC06"/>
<stop offset="1" stop-color="#FFDB47"/>
</linearGradient>
<linearGradient id="paint5_linear_141_2" x1="9.26011" y1="95.0625" x2="12.7923" y2="95.1895" gradientUnits="userSpaceOnUse">
<stop stop-color="#FDCC06"/>
<stop offset="1" stop-color="#FFDB47"/>
</linearGradient>
<linearGradient id="paint6_linear_141_2" x1="7.70404" y1="3.50006" x2="117.203" y2="7.43757" gradientUnits="userSpaceOnUse">
<stop stop-color="#FDCC06"/>
<stop offset="1" stop-color="#FFDB47"/>
</linearGradient>
<clipPath id="clip0_141_2">
<rect width="117" height="117" fill="white"/>
</clipPath>
</defs>
</svg>
