<svg width="19" height="23" viewBox="0 0 19 23" fill="none" xmlns="http://www.w3.org/2000/svg">
<path d="M18.75 19.8316C18.75 20.2998 18.3614 20.6794 17.8819 20.6794H17.0139V21.5272C17.0139 21.9954 16.6253 22.375 16.1458 22.375C15.6664 22.375 15.2778 21.9954 15.2778 21.5272V20.6794H14.4097C13.9303 20.6794 13.5417 20.2998 13.5417 19.8316C13.5417 19.3633 13.9303 18.9838 14.4097 18.9838H15.2778V18.136C15.2778 17.6677 15.6664 17.2882 16.1458 17.2882C16.6253 17.2882 17.0139 17.6677 17.0139 18.136V18.9838H17.8819C18.3614 18.9838 18.75 19.3633 18.75 19.8316ZM18.75 6.60579V14.7447C18.75 15.213 18.3614 15.5925 17.8819 15.5925C17.4025 15.5925 17.0139 15.213 17.0139 14.7447V7.4536H15.2778V9.99702C15.2778 10.4653 14.8891 10.8448 14.4097 10.8448C13.9303 10.8448 13.5417 10.4653 13.5417 9.99702V7.4536H5.20833V9.99702C5.20833 10.4653 4.8197 10.8448 4.34028 10.8448C3.86085 10.8448 3.47222 10.4653 3.47222 9.99702V7.4536H1.73611V20.6794H10.9375C11.4169 20.6794 11.8056 21.0589 11.8056 21.5272C11.8056 21.9954 11.4169 22.375 10.9375 22.375H0.868056C0.388628 22.375 0 21.9954 0 21.5272V6.60579C0 6.13755 0.388628 5.75798 0.868056 5.75798H3.51328C3.85812 2.89761 6.35516 0.671143 9.375 0.671143C12.3948 0.671143 14.8919 2.89761 15.2367 5.75798H17.8819C18.3614 5.75798 18.75 6.13755 18.75 6.60579ZM13.4835 5.75798C13.1519 3.83579 11.4359 2.36676 9.375 2.36676C7.31411 2.36676 5.59813 3.83579 5.26654 5.75798H13.4835Z" fill="url(#paint0_linear_69_127)"/>
<defs>
<linearGradient id="paint0_linear_69_127" x1="0.612745" y1="0.671155" x2="18.7327" y2="1.23406" gradientUnits="userSpaceOnUse">
<stop stop-color="#FFDB47"/>
<stop offset="1" stop-color="#FDCC06"/>
</linearGradient>
</defs>
</svg>
