<svg width="100" height="100" viewBox="0 0 100 100" fill="none" xmlns="http://www.w3.org/2000/svg">
<path d="M90.625 12.5H87.5H12.5H9.375C4.2 12.5 0 16.7 0 21.875V25V75V78.125C0 83.3 4.2 87.5 9.375 87.5H12.5H87.5H90.625C95.8 87.5 100 83.3 100 78.125V75V25V21.875C100 16.7 95.8 12.5 90.625 12.5ZM79.5875 18.75L50 42.1125L20.4125 18.75H79.5875ZM87.5 81.25H12.5V29.0375L50 57.8812L87.5 29.0312V81.25Z" fill="url(#paint0_linear_161_0)"/>
<defs>
<linearGradient id="paint0_linear_161_0" x1="3.26797" y1="12.5" x2="99.7793" y2="17.1273" gradientUnits="userSpaceOnUse">
<stop stop-color="#FFDB47"/>
<stop offset="1" stop-color="#FDCC06"/>
</linearGradient>
</defs>
</svg>
