<svg width="117" height="117" viewBox="0 0 117 117" fill="none" xmlns="http://www.w3.org/2000/svg">
<path d="M62.3806 77.0193H93.5708C94.7404 77.0193 95.5201 76.2396 95.5201 75.07V57.5255C95.5201 56.3558 94.7404 55.5761 93.5708 55.5761H62.3806C61.211 55.5761 60.4313 56.3558 60.4313 57.5255V75.07C60.431 76.2394 61.211 77.0193 62.3806 77.0193ZM64.3299 59.4748H91.6214V73.1204H64.3299V59.4748Z" fill="url(#paint0_linear_141_45)"/>
<path d="M9.74704 51.6771H25.3422C26.5119 51.6771 27.2916 50.8974 27.2916 49.7277C27.2916 48.5581 26.5119 47.7784 25.3422 47.7784H9.74704C8.57741 47.7784 7.79773 48.5581 7.79773 49.7277C7.79773 50.8974 8.57741 51.6771 9.74704 51.6771Z" fill="url(#paint1_linear_141_45)"/>
<path d="M33.1397 51.6771H48.7349C49.9046 51.6771 50.6843 50.8974 50.6843 49.7277C50.6843 48.5581 49.9046 47.7784 48.7349 47.7784H33.1397C31.9701 47.7784 31.1904 48.5581 31.1904 49.7277C31.1904 50.8974 31.9701 51.6771 33.1397 51.6771Z" fill="url(#paint2_linear_141_45)"/>
<path d="M9.74704 59.4748H35.0891C36.2587 59.4748 37.0384 58.6951 37.0384 57.5255C37.0384 56.3558 36.2587 55.5761 35.0891 55.5761H9.74704C8.57741 55.5761 7.79773 56.3558 7.79773 57.5255C7.79773 58.6951 8.57741 59.4748 9.74704 59.4748Z" fill="url(#paint3_linear_141_45)"/>
<path d="M48.7347 55.5759H42.8866C41.7169 55.5759 40.9373 56.3556 40.9373 57.5252C40.9373 58.6949 41.7169 59.4745 42.8866 59.4745H48.7347C49.9044 59.4745 50.6841 58.6949 50.6841 57.5252C50.6841 56.3556 49.9044 55.5759 48.7347 55.5759Z" fill="url(#paint4_linear_141_45)"/>
<path d="M115.209 31.4035C113.845 29.6491 112.09 28.6743 109.946 28.4795L105.267 27.9125V22.4362V18.5376C105.267 14.249 101.758 10.7401 97.4696 10.7401H7.79749C3.5089 10.7399 0 14.2488 0 18.5376V22.4364V38.0316V80.9181C0 84.4392 2.366 87.4329 5.58615 88.3924C5.48792 92.3358 8.47163 95.7593 12.4763 96.1234L102.538 106.26C102.733 106.26 103.123 106.26 103.318 106.26C107.217 106.26 110.726 103.336 111.115 99.6323L116.963 37.0569C117.158 35.1073 116.574 32.9629 115.209 31.4035ZM3.89886 24.3857H101.368V29.4542V36.0821H3.89886V24.3857ZM7.79749 14.6387H97.4694C99.6138 14.6387 101.368 16.3932 101.368 18.5376V20.4869H3.89886V18.5376C3.89886 16.3932 5.65331 14.6387 7.79749 14.6387ZM3.89886 80.9179V39.9807H101.368V80.9179C101.368 83.0623 99.614 84.8168 97.4696 84.8168H7.99258H7.79772C5.65331 84.8168 3.89886 83.0623 3.89886 80.9179ZM113.065 36.2769L107.216 98.8524C107.022 100.997 105.072 102.556 102.928 102.361L13.0608 92.2245C11.1115 92.0297 9.7468 90.4701 9.55194 88.7156H97.4694C101.758 88.7156 105.267 85.2067 105.267 80.9181V38.0314V31.5984L109.751 31.9884C110.725 31.9884 111.7 32.5732 112.285 33.3529C112.87 34.1325 113.26 35.3022 113.065 36.2769Z" fill="url(#paint5_linear_141_45)"/>
<defs>
<linearGradient id="paint0_linear_141_45" x1="61.578" y1="55.5762" x2="95.4034" y2="57.5665" gradientUnits="userSpaceOnUse">
<stop stop-color="#FFDB47"/>
<stop offset="1" stop-color="#FDCC06"/>
</linearGradient>
<linearGradient id="paint1_linear_141_45" x1="8.43478" y1="47.7784" x2="26.7013" y2="51.0628" gradientUnits="userSpaceOnUse">
<stop stop-color="#FFDB47"/>
<stop offset="1" stop-color="#FDCC06"/>
</linearGradient>
<linearGradient id="paint2_linear_141_45" x1="31.8275" y1="47.7784" x2="50.094" y2="51.0628" gradientUnits="userSpaceOnUse">
<stop stop-color="#FFDB47"/>
<stop offset="1" stop-color="#FDCC06"/>
</linearGradient>
<linearGradient id="paint3_linear_141_45" x1="8.75331" y1="55.5761" x2="35.1207" y2="62.6875" gradientUnits="userSpaceOnUse">
<stop stop-color="#FFDB47"/>
<stop offset="1" stop-color="#FDCC06"/>
</linearGradient>
<linearGradient id="paint4_linear_141_45" x1="41.2558" y1="55.5759" x2="50.6086" y2="56.4167" gradientUnits="userSpaceOnUse">
<stop stop-color="#FFDB47"/>
<stop offset="1" stop-color="#FDCC06"/>
</linearGradient>
<linearGradient id="paint5_linear_141_45" x1="3.82353" y1="10.7401" x2="116.782" y2="15.7154" gradientUnits="userSpaceOnUse">
<stop stop-color="#FFDB47"/>
<stop offset="1" stop-color="#FDCC06"/>
</linearGradient>
</defs>
</svg>
