<svg width="117" height="117" viewBox="0 0 117 117" fill="none" xmlns="http://www.w3.org/2000/svg">
<path d="M91.0656 72.8476H94.4933V76.2753H91.0656V72.8476Z" fill="url(#paint0_linear_141_32)"/>
<path d="M22.5109 72.8476H25.9386V76.2753H22.5109V72.8476Z" fill="url(#paint1_linear_141_32)"/>
<path d="M38.7334 74.5614C38.7334 85.4607 47.6007 94.3281 58.5 94.3281C69.3993 94.3281 78.2666 85.4607 78.2666 74.5614C78.2666 63.6622 69.3993 54.7948 58.5 54.7948C47.6007 54.7948 38.7334 63.6622 38.7334 74.5614ZM74.8389 74.5614C74.8389 83.5707 67.5092 90.9003 58.5 90.9003C49.4908 90.9003 42.1611 83.5707 42.1611 74.5614C42.1611 65.5522 49.4908 58.2226 58.5 58.2226C67.5092 58.2226 74.8389 65.5522 74.8389 74.5614Z" fill="url(#paint2_linear_141_32)"/>
<path d="M56.7861 61.1883V62.4318C53.7343 63.199 51.4679 65.9654 51.4679 69.2519V70.1104C51.4679 73.2224 53.7864 75.8016 56.7861 76.2157V83.041C55.6653 82.4324 54.8956 81.2636 54.8956 79.8091H51.4679C51.4679 83.2135 53.7695 85.9324 56.7861 86.6908V87.9344H60.2139V86.6908C63.2657 85.9237 65.5321 83.1573 65.5321 79.871V79.0123C65.5321 75.9003 63.2136 73.3211 60.2139 72.9072V66.0819C61.3347 66.6902 62.1044 67.8593 62.1044 69.3138H65.5321C65.5321 65.9094 63.2303 63.1905 60.2139 62.4321V61.1885H56.7861V61.1883ZM56.7861 72.7121C55.6902 72.3544 54.8956 71.3243 54.8956 70.1104V69.2519C54.8956 67.8845 55.6612 66.6925 56.7861 66.0817V72.7121ZM62.1044 79.0123V79.871C62.1044 81.2384 61.3388 82.4304 60.2139 83.041V76.4108C61.3098 76.7682 62.1044 77.7986 62.1044 79.0123Z" fill="url(#paint3_linear_141_32)"/>
<path d="M0 40.6266V108.496H19.0788V105.068H3.42773V44.0544H113.572V105.068H22.5065V108.496H117V40.6266H0Z" fill="url(#paint4_linear_141_32)"/>
<path d="M15.0994 101.64H101.901L101.721 99.7628C101.342 95.8152 104.462 92.3854 108.431 92.3854H110.145V56.737H108.431C104.713 56.737 101.689 53.7128 101.689 49.9958C101.689 49.5947 101.703 49.5406 101.901 47.4821H84.144V50.9099H98.3024C98.7151 55.5197 102.217 59.2534 106.717 60.0203V89.1023C102.217 89.869 98.7149 93.603 98.3024 98.2128H18.6976C18.2851 93.603 14.7834 89.869 10.2832 89.1023V60.0203C14.7834 59.2536 18.2851 55.5197 18.6976 50.9099H80.7163V47.4821H15.0994L15.2795 49.3596C15.6577 53.3072 12.538 56.737 8.56934 56.737H6.85547V92.3854H8.56934C12.2866 92.3854 15.3105 95.4096 15.3105 99.1266C15.3105 99.5277 15.2968 99.5818 15.0994 101.64Z" fill="url(#paint5_linear_141_32)"/>
<path d="M84.8733 23.8548L84.0616 22.1509L64.2975 34.0155L66.0619 36.9542L82.7401 26.9422C85.482 30.7137 90.4193 32.0802 94.6437 30.4264L98.2092 36.3671L101.148 34.603L95.8923 25.846L94.4227 26.7281C90.9872 28.7905 86.5627 27.4063 84.8733 23.8548Z" fill="url(#paint6_linear_141_32)"/>
<path d="M109.144 34.6032L93.4791 8.50421L50.975 34.0157L52.7389 36.9546L92.3041 13.2073L106.205 36.3671L109.144 34.6032Z" fill="url(#paint7_linear_141_32)"/>
<defs>
<linearGradient id="paint0_linear_141_32" x1="91.1776" y1="72.8476" x2="94.489" y2="72.9667" gradientUnits="userSpaceOnUse">
<stop stop-color="#FFDB47"/>
<stop offset="1" stop-color="#FDCC06"/>
</linearGradient>
<linearGradient id="paint1_linear_141_32" x1="22.6229" y1="72.8476" x2="25.9344" y2="72.9667" gradientUnits="userSpaceOnUse">
<stop stop-color="#FFDB47"/>
<stop offset="1" stop-color="#FDCC06"/>
</linearGradient>
<linearGradient id="paint2_linear_141_32" x1="40.0253" y1="54.7949" x2="78.2177" y2="56.1682" gradientUnits="userSpaceOnUse">
<stop stop-color="#FFDB47"/>
<stop offset="1" stop-color="#FDCC06"/>
</linearGradient>
<linearGradient id="paint3_linear_141_32" x1="51.9275" y1="61.1883" x2="65.5274" y2="61.4454" gradientUnits="userSpaceOnUse">
<stop stop-color="#FFDB47"/>
<stop offset="1" stop-color="#FDCC06"/>
</linearGradient>
<linearGradient id="paint4_linear_141_32" x1="3.82353" y1="40.6267" x2="116.568" y2="47.6157" gradientUnits="userSpaceOnUse">
<stop stop-color="#FFDB47"/>
<stop offset="1" stop-color="#FDCC06"/>
</linearGradient>
<linearGradient id="paint5_linear_141_32" x1="10.2309" y1="47.4821" x2="109.678" y2="54.3023" gradientUnits="userSpaceOnUse">
<stop stop-color="#FFDB47"/>
<stop offset="1" stop-color="#FDCC06"/>
</linearGradient>
<linearGradient id="paint6_linear_141_32" x1="65.5018" y1="22.1509" x2="100.865" y2="25.3165" gradientUnits="userSpaceOnUse">
<stop stop-color="#FFDB47"/>
<stop offset="1" stop-color="#FDCC06"/>
</linearGradient>
<linearGradient id="paint7_linear_141_32" x1="52.8759" y1="8.50423" x2="108.842" y2="12.6189" gradientUnits="userSpaceOnUse">
<stop stop-color="#FFDB47"/>
<stop offset="1" stop-color="#FDCC06"/>
</linearGradient>
</defs>
</svg>
